<?xml version="1.0" encoding="UTF-8" standalone="no"?>
<!-- Generator: Adobe Illustrator 16.0.0, SVG Export Plug-In . SVG Version: 6.00 Build 0)  -->

<svg
   xmlns:dc="http://purl.org/dc/elements/1.1/"
   xmlns:cc="http://creativecommons.org/ns#"
   xmlns:rdf="http://www.w3.org/1999/02/22-rdf-syntax-ns#"
   xmlns:svg="http://www.w3.org/2000/svg"
   xmlns="http://www.w3.org/2000/svg"
   xmlns:sodipodi="http://sodipodi.sourceforge.net/DTD/sodipodi-0.dtd"
   xmlns:inkscape="http://www.inkscape.org/namespaces/inkscape"
   version="1.1"
   id="Layer_1"
   x="0px"
   y="0px"
   width="880"
   height="495"
   viewBox="0 0 880 495"
   enable-background="new 0 0 612 792"
   xml:space="preserve"
   inkscape:version="0.48.4 r9939"
   sodipodi:docname="GeekyHardware1_1.svg"><metadata
   id="metadata3017"><rdf:RDF><cc:Work
       rdf:about=""><dc:format>image/svg+xml</dc:format><dc:type
         rdf:resource="http://purl.org/dc/dcmitype/StillImage" /><dc:title></dc:title></cc:Work></rdf:RDF></metadata><defs
   id="defs3015" /><sodipodi:namedview
   pagecolor="#ffffff"
   bordercolor="#666666"
   borderopacity="1"
   objecttolerance="10"
   gridtolerance="10"
   guidetolerance="10"
   inkscape:pageopacity="0"
   inkscape:pageshadow="2"
   inkscape:window-width="1366"
   inkscape:window-height="706"
   id="namedview3013"
   showgrid="false"
   inkscape:zoom="0.2979798"
   inkscape:cx="231.44531"
   inkscape:cy="349.58594"
   inkscape:window-x="-8"
   inkscape:window-y="-8"
   inkscape:window-maximized="1"
   inkscape:current-layer="Layer_1"
   fit-margin-top="0"
   fit-margin-left="0"
   fit-margin-right="0"
   fit-margin-bottom="0" />
<text
   font-size="372"
   id="text3003"
   style="font-size:372px;font-family:AcmeFont"
   x="180.44531"
   y="434.41406">GH</text>

<text
   font-size="48"
   id="text3005"
   style="font-size:48px;font-family:AcmeFont"
   x="197.44531"
   y="488.41406">GEEKY HARDWARE</text>

<g
   id="g3007"
   transform="translate(125.44531,-256.58593)">
	<g
   id="g3009">
		<path
   d="m 300.112,271.559 c -48.576,14.273 -97.152,28.546 -145.83,42.849 0.604,1.31 1.135,2.458 1.729,3.744 6.177,-2.205 12.034,-1.658 17.233,1.89 1.879,-2.055 3.667,-4.208 5.665,-6.144 2.254,-2.185 5.155,-3.219 8.231,-3.193 7.179,0.061 14.356,0.346 21.535,0.548 9.086,0.256 18.172,0.493 27.257,0.791 9.195,0.301 18.391,0.61 27.581,1.031 3.318,0.152 6.412,1.279 9.321,2.91 3.859,2.163 6.905,5.113 9.148,8.941 0.237,0.404 1.257,0.636 1.824,0.517 8.813,-1.855 17.609,-3.785 26.412,-5.69 13.988,-3.028 27.98,-6.044 41.97,-9.078 9.68,-2.1 19.354,-4.232 29.033,-6.331 11.038,-2.393 22.084,-4.751 33.121,-7.147 17.11,-3.714 34.215,-7.455 51.325,-11.171 14.877,-3.231 29.758,-6.444 44.637,-9.667 3.545,-0.768 7.087,-1.546 10.733,-2 -1.625,0.559 -3.241,1.147 -4.877,1.672 -12.299,3.944 -24.603,7.875 -36.901,11.813 -14.479,4.635 -28.957,9.275 -43.436,13.911 -13.466,4.312 -26.935,8.617 -40.398,12.931 -10.378,3.325 -20.751,6.662 -31.128,9.989 -11.24,3.604 -22.478,7.217 -33.727,10.796 -10.819,3.442 -21.652,6.84 -32.476,10.271 -4.317,1.369 -8.616,2.798 -12.941,4.142 -0.938,0.292 -1.349,0.764 -1.447,1.742 -0.483,4.818 -1.042,9.629 -1.541,14.445 -0.57,5.508 -0.716,11.095 -1.764,16.509 -1.087,5.62 -4.382,10.017 -9.582,12.837 -5.464,2.964 -11.157,3.218 -17.082,1.866 -15.333,-3.497 -30.678,-6.942 -46.014,-10.429 -7.874,-1.79 -15.755,-3.555 -23.598,-5.47 -2.981,-0.728 -5.411,-2.571 -7.455,-4.834 -4.535,-5.022 -6.273,-10.966 -5.997,-17.682 0.348,-8.464 0.46,-16.938 0.711,-25.406 0.027,-0.926 0.156,-1.896 0.477,-2.755 0.488,-1.307 -0.899,-1.488 -1.184,-2.304 -0.639,-1.834 -2.103,-2.871 -3.752,-3.615 -3.068,-1.383 -6.092,-1.213 -8.924,0.668 -0.389,0.259 -0.732,0.859 -0.771,1.329 -0.29,3.517 -0.437,7.045 -0.744,10.561 -0.436,4.996 -0.973,9.983 -1.461,14.975 -0.12,1.225 -0.136,2.466 -0.339,3.677 -1.56,9.32 -9.958,13.899 -19.172,11.852 -10.886,-2.417 -21.858,-4.449 -32.792,-6.653 -3.881,-0.782 -7.798,-1.428 -11.626,-2.417 -3.508,-0.906 -6.15,-3.149 -8.229,-6.149 -2.604,-3.757 -2.948,-7.903 -2.716,-12.282 0.296,-5.601 0.34,-11.215 0.574,-16.82 0.117,-2.793 -0.002,-5.69 0.711,-8.345 1.795,-6.681 6.805,-11.142 14.477,-10.498 4.859,0.409 9.733,0.643 14.602,0.936 4.868,0.293 9.743,0.833 14.605,0.751 3.703,-0.063 7.426,-0.759 11.08,-1.476 10.973,-2.152 21.919,-4.444 32.872,-6.698 7.232,-1.488 14.456,-3.015 21.687,-4.509 10.564,-2.183 21.13,-4.362 31.699,-6.525 11.154,-2.284 22.317,-4.525 33.467,-6.827 11.052,-2.282 22.091,-4.628 33.142,-6.921 3.65,-0.758 7.315,-1.44 10.973,-2.157 0.026,0.098 0.049,0.198 0.072,0.299 z m -111.24,49.508 c -4.365,-0.655 -7.76,2.419 -8.51,7.417 -0.454,3.03 -0.319,6.151 -0.42,9.231 -0.271,8.241 -0.613,16.481 -0.758,24.725 -0.09,5.142 2.925,8.818 7.635,9.823 5.086,1.084 10.196,2.06 15.297,3.071 10.806,2.144 21.614,4.277 32.42,6.419 7.136,1.415 14.263,2.878 21.408,4.244 4.964,0.948 9.569,-1.416 10.886,-5.563 0.516,-1.626 0.942,-3.319 1.109,-5.011 0.443,-4.518 0.716,-9.051 1.071,-13.577 0.529,-6.76 1.229,-13.511 1.518,-20.281 0.101,-2.362 0.891,-4.587 0.354,-7.153 -1.15,-5.498 -5.659,-8.805 -10.926,-9.041 -7.729,-0.346 -15.452,-0.869 -23.175,-1.342 -15.836,-0.97 -31.671,-1.957 -47.909,-2.962 z M 87.46,342.514 c -0.803,4.522 1.784,8.024 6.696,8.863 14.39,2.458 28.741,5.141 43.103,7.757 3.994,0.728 7.659,-1.727 7.896,-5.824 0.363,-6.267 0.837,-12.528 1.274,-18.791 0.152,-2.178 0.002,-4.447 0.577,-6.511 0.977,-3.502 0.187,-6.421 -1.985,-9.117 -0.854,-1.061 -1.9,-1.271 -3.288,-0.842 -6.359,1.965 -12.748,3.833 -19.135,5.704 -11.311,3.312 -22.633,6.587 -33.932,9.941 -0.499,0.148 -1.128,0.919 -1.153,1.426 -0.119,2.46 -0.053,4.929 -0.053,7.394 z"
   id="path3011"
   inkscape:connector-curvature="0" />
	</g>
</g>
</svg>