<?xml version="1.0" encoding="UTF-8" standalone="no"?>
<!-- Generator: Adobe Illustrator 16.0.0, SVG Export Plug-In . SVG Version: 6.00 Build 0)  -->

<svg
   xmlns:dc="http://purl.org/dc/elements/1.1/"
   xmlns:cc="http://creativecommons.org/ns#"
   xmlns:rdf="http://www.w3.org/1999/02/22-rdf-syntax-ns#"
   xmlns:svg="http://www.w3.org/2000/svg"
   xmlns="http://www.w3.org/2000/svg"
   xmlns:sodipodi="http://sodipodi.sourceforge.net/DTD/sodipodi-0.dtd"
   xmlns:inkscape="http://www.inkscape.org/namespaces/inkscape"
   version="1.1"
   id="Layer_1"
   x="0px"
   y="0px"
   width="560"
   height="315"
   viewBox="0 0 560 314.99999"
   enable-background="new 0 0 612 792"
   xml:space="preserve"
   inkscape:version="0.48.4 r9939"
   sodipodi:docname="techdcode.svg"><metadata
   id="metadata3102"><rdf:RDF><cc:Work
       rdf:about=""><dc:format>image/svg+xml</dc:format><dc:type
         rdf:resource="http://purl.org/dc/dcmitype/StillImage" /></cc:Work></rdf:RDF></metadata><defs
   id="defs3100" /><sodipodi:namedview
   pagecolor="#ffffff"
   bordercolor="#666666"
   borderopacity="1"
   objecttolerance="10"
   gridtolerance="10"
   guidetolerance="10"
   inkscape:pageopacity="0"
   inkscape:pageshadow="2"
   inkscape:window-width="1366"
   inkscape:window-height="706"
   id="namedview3098"
   showgrid="false"
   fit-margin-top="0"
   fit-margin-left="0"
   fit-margin-right="0"
   fit-margin-bottom="1.1"
   inkscape:zoom="0.5959596"
   inkscape:cx="248.24744"
   inkscape:cy="-46.61391"
   inkscape:window-x="-8"
   inkscape:window-y="-8"
   inkscape:window-maximized="1"
   inkscape:current-layer="Layer_1" />
<text
   id="text3054"
   x="10.21875"
   y="248.97226"><tspan
     x="10.21875"
     y="248.97226"
     font-size="76"
     id="tspan3056"
     style="font-size:76px;font-family:Nasalization">TECH</tspan><tspan
     x="186.82275"
     y="248.97226"
     font-size="153"
     id="tspan3058"
     style="font-size:153px;font-family:Calvin">D</tspan><tspan
     x="312.58676"
     y="248.97226"
     font-size="76"
     id="tspan3060"
     style="font-size:76px;font-family:Nasalization">CODE</tspan></text>

<text
   id="text3062"
   x="408.21875"
   y="97.97226"><tspan
     x="408.21875"
     y="97.97226"
     font-size="27"
     id="tspan3064"
     style="font-size:27px;font-family:ArialMT">1011011</tspan><tspan
     x="408.21875"
     y="130.37225"
     font-size="27"
     id="tspan3066"
     style="font-size:27px;font-family:ArialMT">0010011</tspan><tspan
     x="408.21875"
     y="162.77225"
     font-size="27"
     id="tspan3068"
     style="font-size:27px;font-family:ArialMT">1000110</tspan></text>

<text
   id="text3070"
   x="259.21875"
   y="133.97226"><tspan
     x="259.21875"
     y="133.97226"
     font-size="7"
     id="tspan3072"
     style="font-size:7px;font-family:ArialMT">101101011010101001010001001010001011</tspan><tspan
     x="259.21875"
     y="142.37225"
     font-size="7"
     id="tspan3074"
     style="font-size:7px;font-family:ArialMT">1010111100101001000100100010101001011</tspan><tspan
     x="259.21875"
     y="150.77225"
     font-size="7"
     id="tspan3076"
     style="font-size:7px;font-family:ArialMT">01010010101000101000101010101101011010</tspan><tspan
     x="259.21875"
     y="159.17226"
     font-size="7"
     id="tspan3078"
     style="font-size:7px;font-family:ArialMT">10101010110010101001001010101101010101</tspan><tspan
     x="259.21875"
     y="167.57225"
     font-size="7"
     id="tspan3080"
     style="font-size:7px;font-family:ArialMT">010101010101101011101010110111011101101111</tspan></text>

<g
   id="g3082"
   transform="translate(-13.78125,-51.027747)">
	<path
   clip-rule="evenodd"
   d="m 442.765,230.102 c -1.149,-0.554 -2.354,-1.016 -3.438,-1.676 -16.572,-10.089 -27.017,-24.58 -30.376,-43.722 -5.014,-28.566 9.122,-55.811 35.206,-68.441 10.383,-5.027 21.418,-7.11 32.881,-5.828 25.092,2.806 43.334,15.76 52.831,39.059 10.016,24.568 5.398,47.339 -12.053,67.409 -0.225,0.257 -0.457,0.507 -0.854,0.948 13.83,16.984 27.664,33.973 41.645,51.141 -3.134,2.563 -6.203,5.073 -9.362,7.656 -0.362,-0.413 -0.648,-0.717 -0.911,-1.04 -13.128,-16.113 -26.254,-32.227 -39.379,-48.343 -1.214,-1.491 -1.269,-1.518 -2.911,-0.445 -7.837,5.12 -16.395,8.394 -25.653,9.67 -12.54,1.729 -24.605,-0.031 -36.096,-5.431 -0.558,-0.262 -1.049,-0.664 -1.572,-1.002 0.317,0.09 0.646,0.154 0.952,0.279 2.459,1 4.868,2.147 7.381,2.983 2.735,0.91 5.566,1.533 8.356,2.281 0.037,-0.123 0.073,-0.245 0.11,-0.368 -10.804,-2.481 -20.534,-7.193 -29.232,-14.071 0.208,0.379 0.459,0.678 0.769,0.891 3.527,2.423 7.063,4.832 10.596,7.248 0.375,0.257 0.74,0.533 1.11,0.802 z m 50.528,-103.095 c -0.327,-0.085 -0.674,-0.127 -0.979,-0.261 -5.223,-2.283 -10.646,-3.732 -16.344,-4.209 -6.436,-0.538 -12.756,-0.03 -18.946,1.818 -25.703,7.672 -40.994,32.816 -36.007,59.179 5.488,29.018 35.252,47.5 63.802,39.618 24.59,-6.789 40.46,-29.985 37.484,-55.305 -2.086,-17.746 -11.355,-30.849 -26.896,-39.573 -0.731,-0.411 -1.436,-0.871 -2.156,-1.312 0.395,0.124 0.84,0.167 1.175,0.383 3.523,2.268 7.03,4.562 10.538,6.853 0.178,0.116 0.322,0.283 0.495,0.409 0.167,0.121 0.35,0.219 0.525,0.327 -6.847,-6.734 -14.981,-10.869 -24.439,-12.333 0.309,0.205 0.664,0.302 1.012,0.418 3.163,1.059 6.33,2.107 9.481,3.198 0.455,0.157 0.838,0.522 1.255,0.79 z m -24.355,-11.025 c -13.967,-2.028 -31.575,7.613 -36.227,14.951 10.575,-9.119 22.625,-13.934 36.227,-14.951 z m 40.615,100.114 c -5.485,3.402 -10.931,6.888 -16.958,9.352 -6.026,2.463 -12.343,3.851 -18.657,5.23 13.696,-0.377 25.529,-5.344 35.615,-14.582 z m -48.074,-97.499 c -4.018,0.125 -7.74,1.208 -11.181,3.251 3.727,-1.083 7.454,-2.167 11.181,-3.251 z m 20.303,112.853 c 3.536,0 9.922,-1.864 11.407,-3.308 -3.951,1.146 -7.679,2.227 -11.407,3.308 z"
   id="path3084"
   inkscape:connector-curvature="0"
   style="fill-rule:evenodd" />
	<path
   clip-rule="evenodd"
   d="m 468.938,115.982 c -13.602,1.017 -25.651,5.832 -36.227,14.951 4.651,-7.337 22.26,-16.979 36.227,-14.951 z"
   id="path3086"
   inkscape:connector-curvature="0"
   style="fill:#ffffff;fill-rule:evenodd" />
	<path
   clip-rule="evenodd"
   d="m 509.553,216.096 c -10.086,9.238 -21.919,14.205 -35.615,14.582 6.314,-1.38 12.631,-2.767 18.657,-5.23 6.027,-2.464 11.472,-5.949 16.958,-9.352 z"
   id="path3088"
   inkscape:connector-curvature="0"
   style="fill:#ffffff;fill-rule:evenodd" />
	<path
   clip-rule="evenodd"
   d="m 442.765,230.102 c -0.37,-0.268 -0.734,-0.545 -1.112,-0.803 -3.532,-2.416 -7.068,-4.824 -10.596,-7.248 -0.31,-0.213 -0.561,-0.512 -0.769,-0.891 8.698,6.878 18.429,11.59 29.232,14.071 -0.037,0.123 -0.073,0.245 -0.11,0.368 -2.79,-0.748 -5.621,-1.371 -8.356,-2.281 -2.513,-0.836 -4.922,-1.983 -7.381,-2.983 -0.306,-0.125 -0.635,-0.188 -0.952,-0.279 l 0.044,0.046 z"
   id="path3090"
   inkscape:connector-curvature="0"
   style="fill:#ffffff;fill-rule:evenodd" />
	<path
   clip-rule="evenodd"
   d="m 493.293,127.007 c -0.417,-0.269 -0.8,-0.633 -1.256,-0.791 -3.151,-1.091 -6.318,-2.14 -9.481,-3.198 -0.348,-0.117 -0.703,-0.213 -1.012,-0.418 9.458,1.464 17.593,5.599 24.439,12.333 -0.176,-0.108 -0.358,-0.206 -0.525,-0.327 -0.173,-0.125 -0.317,-0.292 -0.495,-0.409 -3.508,-2.291 -7.015,-4.585 -10.538,-6.853 -0.335,-0.216 -0.78,-0.259 -1.173,-0.381 l 0.041,0.044 z"
   id="path3092"
   inkscape:connector-curvature="0"
   style="fill:none" />
	<path
   clip-rule="evenodd"
   d="m 461.479,118.597 c -3.728,1.083 -7.454,2.167 -11.181,3.251 3.441,-2.043 7.164,-3.126 11.181,-3.251 z"
   id="path3094"
   inkscape:connector-curvature="0"
   style="fill:#ffffff;fill-rule:evenodd" />
	<path
   clip-rule="evenodd"
   d="m 481.782,231.45 c 3.728,-1.081 7.456,-2.162 11.407,-3.308 -1.485,1.444 -7.871,3.308 -11.407,3.308 z"
   id="path3096"
   inkscape:connector-curvature="0"
   style="fill:#ffffff;fill-rule:evenodd" />
</g>
</svg>